<?xml version="1.0" encoding="utf-8"?>
<!-- Generator: Adobe Illustrator 24.0.1, SVG Export Plug-In . SVG Version: 6.00 Build 0)  -->
<svg version="1.1" id="Layer_1" xmlns="http://www.w3.org/2000/svg" xmlns:xlink="http://www.w3.org/1999/xlink" x="0px" y="0px"
	 viewBox="0 0 500 500" style="enable-background:new 0 0 500 500;" xml:space="preserve">
<style type="text/css">
	.st0{fill:#FBCD09;}
</style>
<path class="st0" d="M384.43,227.27C373.58,162.87,317.45,113.64,250,113.64c-75.19,0-136.36,61.17-136.36,136.36
	c0,75.19,61.17,136.37,136.36,136.37c67.45,0,123.58-49.23,134.43-113.64h68.86C441.95,374.85,355.1,454.55,250,454.55
	c-112.79,0-204.55-91.76-204.55-204.55S137.21,45.45,250,45.45c53.9,0,104.75,20.74,143.19,58.4L425,71.39
	C378.02,25.35,315.87,0,250,0C112.15,0,0,112.15,0,250c0,137.85,112.15,250,250,250s250-112.15,250-250v-22.73H384.43z M250,340.91
	c-50.13,0-90.91-40.78-90.91-90.91s40.78-90.91,90.91-90.91c42.27,0,77.79,29.04,87.92,68.18H250v45.45h87.92
	C327.79,311.87,292.27,340.91,250,340.91z"/>
</svg>
